<mxfile host="app.diagrams.net" modified="2021-09-27T17:46:29.321Z" agent="5.0 (Macintosh; Intel Mac OS X 10_14_6) AppleWebKit/537.36 (KHTML, like Gecko) Chrome/94.0.4606.61 Safari/537.36" etag="BNtLGSRm2kOOXezsNxOH" version="15.3.5" type="github">
  <diagram id="9lk45U2YtWCPRXFCkFiL" name="Page-1">
    <mxGraphModel dx="1426" dy="794" grid="1" gridSize="10" guides="1" tooltips="1" connect="1" arrows="1" fold="1" page="1" pageScale="1" pageWidth="850" pageHeight="1100" math="0" shadow="0">
      <root>
        <mxCell id="0" />
        <mxCell id="1" parent="0" />
        <mxCell id="r8ZaBdszdzgL9pVLsJDS-1" value="LB" style="rounded=0;whiteSpace=wrap;html=1;hachureGap=4;pointerEvents=0;" vertex="1" parent="1">
          <mxGeometry x="210" y="335" width="60" height="50" as="geometry" />
        </mxCell>
        <mxCell id="r8ZaBdszdzgL9pVLsJDS-2" value="" style="shape=actor;whiteSpace=wrap;html=1;hachureGap=4;pointerEvents=0;" vertex="1" parent="1">
          <mxGeometry x="60" y="420" width="40" height="60" as="geometry" />
        </mxCell>
        <mxCell id="r8ZaBdszdzgL9pVLsJDS-3" value="TweetService" style="rounded=0;whiteSpace=wrap;html=1;hachureGap=4;pointerEvents=0;" vertex="1" parent="1">
          <mxGeometry x="330" y="280" width="80" height="40" as="geometry" />
        </mxCell>
        <mxCell id="r8ZaBdszdzgL9pVLsJDS-4" value="TweetService" style="rounded=0;whiteSpace=wrap;html=1;hachureGap=4;pointerEvents=0;" vertex="1" parent="1">
          <mxGeometry x="330" y="340" width="80" height="40" as="geometry" />
        </mxCell>
        <mxCell id="r8ZaBdszdzgL9pVLsJDS-5" value="TweetService" style="rounded=0;whiteSpace=wrap;html=1;hachureGap=4;pointerEvents=0;" vertex="1" parent="1">
          <mxGeometry x="330" y="400" width="80" height="40" as="geometry" />
        </mxCell>
        <mxCell id="r8ZaBdszdzgL9pVLsJDS-9" value="" style="group" vertex="1" connectable="0" parent="1">
          <mxGeometry x="500" y="340" width="100" height="60" as="geometry" />
        </mxCell>
        <mxCell id="r8ZaBdszdzgL9pVLsJDS-6" value="Cache&lt;br&gt;Cluster" style="rounded=0;whiteSpace=wrap;html=1;hachureGap=4;pointerEvents=0;" vertex="1" parent="r8ZaBdszdzgL9pVLsJDS-9">
          <mxGeometry width="80" height="40" as="geometry" />
        </mxCell>
        <mxCell id="r8ZaBdszdzgL9pVLsJDS-7" value="Cache&lt;br&gt;Cluster" style="rounded=0;whiteSpace=wrap;html=1;hachureGap=4;pointerEvents=0;" vertex="1" parent="r8ZaBdszdzgL9pVLsJDS-9">
          <mxGeometry x="10" y="10" width="80" height="40" as="geometry" />
        </mxCell>
        <mxCell id="r8ZaBdszdzgL9pVLsJDS-8" value="Cache&lt;br&gt;Cluster" style="rounded=0;whiteSpace=wrap;html=1;hachureGap=4;pointerEvents=0;" vertex="1" parent="r8ZaBdszdzgL9pVLsJDS-9">
          <mxGeometry x="20" y="20" width="80" height="40" as="geometry" />
        </mxCell>
        <mxCell id="r8ZaBdszdzgL9pVLsJDS-10" value="Tweet&lt;br&gt;DB" style="shape=cylinder3;whiteSpace=wrap;html=1;boundedLbl=1;backgroundOutline=1;size=15;hachureGap=4;pointerEvents=0;" vertex="1" parent="1">
          <mxGeometry x="710" y="280" width="60" height="80" as="geometry" />
        </mxCell>
        <mxCell id="r8ZaBdszdzgL9pVLsJDS-11" value="User&lt;br&gt;DB" style="shape=cylinder3;whiteSpace=wrap;html=1;boundedLbl=1;backgroundOutline=1;size=15;hachureGap=4;pointerEvents=0;" vertex="1" parent="1">
          <mxGeometry x="710" y="385" width="60" height="80" as="geometry" />
        </mxCell>
        <mxCell id="r8ZaBdszdzgL9pVLsJDS-12" value="LB" style="rounded=0;whiteSpace=wrap;html=1;hachureGap=4;pointerEvents=0;" vertex="1" parent="1">
          <mxGeometry x="210" y="525" width="60" height="50" as="geometry" />
        </mxCell>
        <mxCell id="r8ZaBdszdzgL9pVLsJDS-13" value="TimelineService" style="rounded=0;whiteSpace=wrap;html=1;hachureGap=4;pointerEvents=0;" vertex="1" parent="1">
          <mxGeometry x="330" y="470" width="80" height="40" as="geometry" />
        </mxCell>
        <mxCell id="r8ZaBdszdzgL9pVLsJDS-14" value="TimelineService" style="rounded=0;whiteSpace=wrap;html=1;hachureGap=4;pointerEvents=0;" vertex="1" parent="1">
          <mxGeometry x="330" y="530" width="80" height="40" as="geometry" />
        </mxCell>
        <mxCell id="r8ZaBdszdzgL9pVLsJDS-15" value="TimelineService" style="rounded=0;whiteSpace=wrap;html=1;hachureGap=4;pointerEvents=0;" vertex="1" parent="1">
          <mxGeometry x="330" y="590" width="80" height="40" as="geometry" />
        </mxCell>
        <mxCell id="r8ZaBdszdzgL9pVLsJDS-16" value="" style="group" vertex="1" connectable="0" parent="1">
          <mxGeometry x="500" y="530" width="100" height="60" as="geometry" />
        </mxCell>
        <mxCell id="r8ZaBdszdzgL9pVLsJDS-17" value="Cache&lt;br&gt;Cluster" style="rounded=0;whiteSpace=wrap;html=1;hachureGap=4;pointerEvents=0;" vertex="1" parent="r8ZaBdszdzgL9pVLsJDS-16">
          <mxGeometry width="80" height="40" as="geometry" />
        </mxCell>
        <mxCell id="r8ZaBdszdzgL9pVLsJDS-18" value="Cache&lt;br&gt;Cluster" style="rounded=0;whiteSpace=wrap;html=1;hachureGap=4;pointerEvents=0;" vertex="1" parent="r8ZaBdszdzgL9pVLsJDS-16">
          <mxGeometry x="10" y="10" width="80" height="40" as="geometry" />
        </mxCell>
        <mxCell id="r8ZaBdszdzgL9pVLsJDS-19" value="Cache&lt;br&gt;Cluster" style="rounded=0;whiteSpace=wrap;html=1;hachureGap=4;pointerEvents=0;" vertex="1" parent="r8ZaBdszdzgL9pVLsJDS-16">
          <mxGeometry x="20" y="20" width="80" height="40" as="geometry" />
        </mxCell>
      </root>
    </mxGraphModel>
  </diagram>
</mxfile>
